<svg width="93" height="14" viewBox="0 0 93 14" fill="none" xmlns="http://www.w3.org/2000/svg">
<mask id="mask0_2421_9240" style="mask-type:luminance" maskUnits="userSpaceOnUse" x="0" y="0" width="93" height="14">
<path d="M92.6809 0H0V13.7305H92.6809V0Z" fill="white"/>
</mask>
<g mask="url(#mask0_2421_9240)">
<path d="M11.4281 5.3674H5.90244L6.65594 2.87092H12.9351L14.8189 0H0L3.1396 2.37163L0 13.7305H3.64193L5.14894 8.2383H9.54437L11.4281 5.3674Z" fill="#DB1E36"/>
<path d="M53.8754 0L50.3591 6.7404V0H46.8427L46.5916 13.6057H50.2335L57.5173 0H53.8754Z" fill="#DB1E36"/>
<path d="M38.0519 1.33514e-05H35.9169H27.754C27.2517 1.33514e-05 26.7493 0.124834 26.3726 0.374474C25.9958 0.624124 25.6191 0.998594 25.3679 1.6227L24.3632 5.3674C24.2376 5.617 24.2376 5.8667 24.1121 6.1163C23.9865 6.366 23.9865 6.6156 23.8609 6.8653C23.8609 7.739 24.3632 8.2383 25.3679 8.2383H30.3913L29.6378 10.8596H21.726L21.3492 1.33514e-05H17.8329H17.3305L8.53967 13.7305H11.3025H12.3072H17.0794L16.9538 10.7348H14.1909L18.084 4.61845L18.4608 12.4823C18.4608 13.2312 19.0887 13.7305 19.8422 13.7305H22.2283H28.2563H31.0192C32.1494 13.7305 32.9029 13.1064 33.4053 12.2326L34.7867 7.1149C34.7867 7.1149 34.7867 7.1149 34.7867 6.9901V6.8653C34.7867 6.2411 34.6611 5.8667 34.4099 5.617C34.1588 5.3674 33.782 5.2426 33.2797 5.2426H28.2563L29.0098 2.7461H35.1634H38.6798L35.7914 13.7305H39.4333L42.4473 2.7461H45.7125V-0.124817H38.0519V1.33514e-05Z" fill="#DB1E36"/>
<path d="M58.522 0L54.7545 13.7305H58.3964L62.164 0H58.522Z" fill="#DB1E36"/>
<path d="M89.0389 0L86.0249 10.7348H82.6342L85.6482 0H82.0062L78.9922 10.7348H75.6015L77.9875 1.99716C78.3643 0.99858 77.6108 0 76.6061 0H75.9782H74.9735H63.4198L62.6663 2.87092H74.0944L71.8339 11.234C71.4572 12.4823 72.3363 13.7305 73.7177 13.7305H89.0389L92.8064 0H89.0389Z" fill="#DB1E36"/>
<path d="M70.8293 8.2383L71.4572 6.1163L71.5828 5.3674H61.7872L60.1546 11.234C59.7779 12.4823 60.657 13.7305 62.0384 13.7305H69.3223L70.2013 10.7347H64.0477L64.6757 8.3631H70.8293V8.2383Z" fill="#DB1E36"/>
</g>
</svg>
