<svg width="32" height="32" viewBox="0 0 32 32" fill="none" xmlns="http://www.w3.org/2000/svg">
<g clip-path="url(#clip0)">
<path d="M20.3333 10.1958C20.3333 7.91548 19.4202 5.72858 17.7949 4.11616C16.1696 2.50375 13.9652 1.5979 11.6667 1.5979C9.36812 1.5979 7.16372 2.50375 5.53841 4.11616C3.91309 5.72857 3 7.91548 3 10.1958L11.6667 10.1958H20.3333Z" fill="#0066FF" fill-opacity="0.9"/>
<path d="M11.6667 1.59792C11.6667 3.87822 12.5798 6.06513 14.2051 7.67754C15.8304 9.28996 18.0348 10.1958 20.3333 10.1958C22.6319 10.1958 24.8363 9.28996 26.4616 7.67754C28.0869 6.06513 29 3.87822 29 1.59792L20.3333 1.59792H11.6667Z" fill="#0048B5" fill-opacity="0.9"/>
<path d="M29.0001 20.5132C29.0001 18.2329 28.087 16.046 26.4617 14.4335C24.8364 12.8211 22.632 11.9153 20.3334 11.9153C18.0349 11.9153 15.8305 12.8211 14.2052 14.4335C12.5798 16.046 11.6667 18.2329 11.6667 20.5132L20.3334 20.5132H29.0001Z" fill="#0066FF" fill-opacity="0.9"/>
<path d="M3.00041 11.9153C3.00041 14.1956 3.9135 16.3825 5.53882 17.9949C7.16413 19.6073 9.36853 20.5132 11.6671 20.5132C13.9656 20.5132 16.17 19.6073 17.7953 17.9949C19.4206 16.3825 20.3337 14.1956 20.3337 11.9153L11.6671 11.9153H3.00041Z" fill="#0048B5" fill-opacity="0.9"/>
<path d="M20.3333 30.8307C20.3333 28.5504 19.4202 26.3635 17.7949 24.751C16.1696 23.1386 13.9652 22.2328 11.6667 22.2328C9.36812 22.2328 7.16372 23.1386 5.53841 24.751C3.91309 26.3635 3 28.5504 3 30.8307L11.6667 30.8307H20.3333Z" fill="#0066FF" fill-opacity="0.9"/>
<path d="M11.6667 22.2328C11.6667 24.5131 12.5798 26.7 14.2051 28.3124C15.8304 29.9248 18.0348 30.8307 20.3333 30.8307C22.6319 30.8307 24.8363 29.9248 26.4616 28.3124C28.0869 26.7 29 24.5131 29 22.2328L20.3333 22.2328H11.6667Z" fill="#0048B5" fill-opacity="0.9"/>
</g>
<defs>
<clipPath id="clip0">
<rect width="32" height="32" fill="white"/>
</clipPath>
</defs>
</svg>
