<?xml version="1.0" standalone="no"?>
<!DOCTYPE svg PUBLIC "-//W3C//DTD SVG 20010904//EN"
 "http://www.w3.org/TR/2001/REC-SVG-20010904/DTD/svg10.dtd">
<svg version="1.0" xmlns="http://www.w3.org/2000/svg"
 width="300.000000pt" height="300.000000pt" viewBox="0 0 300.000000 300.000000"
 preserveAspectRatio="xMidYMid meet">
<metadata>
Created by potrace 1.14, written by Peter Selinger 2001-2017
</metadata>
<g transform="translate(0.000000,300.000000) scale(0.100000,-0.100000)"
fill="#000000" stroke="none">
<path d="M1058 2685 c-3 -3 -25 -8 -49 -11 -61 -9 -160 -47 -233 -91 -74 -45
-211 -177 -200 -194 4 -7 3 -9 -4 -5 -14 8 -97 -162 -111 -229 -6 -27 -13 -76
-17 -107 -5 -52 -4 -58 13 -58 167 -4 1469 1 1498 5 98 16 263 81 302 121 8 8
17 14 21 14 14 0 111 100 149 152 33 45 64 99 68 118 0 3 6 14 12 25 17 31 43
137 49 204 l5 61 -749 0 c-412 0 -751 -3 -754 -5z"/>
<path d="M445 1792 c3 -31 6 -64 8 -72 19 -92 26 -109 74 -205 97 -191 292
-325 528 -362 22 -3 369 -6 770 -6 l730 0 -2 59 c-2 57 -19 143 -33 174 -4 8
-20 41 -35 73 -69 148 -228 296 -365 342 -3 1 -16 6 -30 12 -14 6 -38 13 -55
17 -16 3 -41 9 -55 13 -14 3 -366 7 -783 9 l-757 3 5 -57z"/>
<path d="M1065 1002 c-91 -15 -238 -63 -255 -82 -3 -3 -22 -14 -43 -25 -49
-25 -153 -124 -200 -191 -66 -93 -112 -217 -122 -332 l-6 -67 743 1 c546 1
760 4 808 13 76 15 200 66 261 109 78 54 199 182 199 210 0 6 4 12 9 14 27 10
87 188 96 289 l6 65 -95 0 c-62 0 -96 -3 -96 -10 0 -6 -4 -5 -9 3 -8 13 -12
13 -27 0 -10 -8 -15 -9 -11 -3 8 13 -181 14 -202 0 -9 -6 -12 -5 -8 0 5 9
-998 15 -1048 6z"/>
</g>
</svg>
