<svg width="150" height="270" viewBox="0 0 150 270" fill="none" xmlns="http://www.w3.org/2000/svg">
<path d="M100 100C100 86.7392 94.7322 74.0215 85.3553 64.6447C75.9785 55.2678 63.2608 50 50 50C36.7392 50 24.0215 55.2678 14.6447 64.6447C5.26785 74.0215 2.00233e-06 86.7392 0 100L50 100H100Z" fill="#0066FF" fill-opacity="0.9"/>
<path d="M50 50C50 63.2608 55.2678 75.9785 64.6447 85.3553C74.0215 94.7322 86.7392 100 100 100C113.261 100 125.979 94.7322 135.355 85.3553C144.732 75.9785 150 63.2608 150 50L100 50L50 50Z" fill="#0048B5" fill-opacity="0.9"/>
<path d="M150 160C150 146.739 144.732 134.021 135.355 124.645C125.979 115.268 113.261 110 100 110C86.7392 110 74.0215 115.268 64.6447 124.645C55.2678 134.021 50 146.739 50 160L100 160H150Z" fill="#0066FF" fill-opacity="0.9"/>
<path d="M0 110C0 123.261 5.26785 135.979 14.6447 145.355C24.0215 154.732 36.7392 160 50 160C63.2608 160 75.9785 154.732 85.3553 145.355C94.7322 135.979 100 123.261 100 110L50 110L0 110Z" fill="#0048B5" fill-opacity="0.9"/>
<path d="M100 220C100 206.739 94.7322 194.021 85.3553 184.645C75.9785 175.268 63.2608 170 50 170C36.7392 170 24.0215 175.268 14.6447 184.645C5.26785 194.021 2.00233e-06 206.739 0 220L50 220H100Z" fill="#0066FF" fill-opacity="0.9"/>
<path d="M50 170C50 183.261 55.2678 195.979 64.6447 205.355C74.0215 214.732 86.7392 220 100 220C113.261 220 125.979 214.732 135.355 205.355C144.732 195.979 150 183.261 150 170L100 170H50Z" fill="#0048B5" fill-opacity="0.9"/>
</svg>
